<mxfile host="65bd71144e">
    <diagram id="2RgbyYNG7AbHzt_dq1wR" name="Page-1">
        <mxGraphModel dx="832" dy="2695" grid="1" gridSize="10" guides="1" tooltips="1" connect="1" arrows="1" fold="1" page="1" pageScale="1" pageWidth="850" pageHeight="1100" math="0" shadow="0">
            <root>
                <mxCell id="0"/>
                <mxCell id="1" parent="0"/>
                <mxCell id="2" value="" style="rounded=0;whiteSpace=wrap;html=1;" parent="1" vertex="1">
                    <mxGeometry x="40.5" y="-2160" width="770" height="430" as="geometry"/>
                </mxCell>
                <mxCell id="3" value="" style="rounded=0;whiteSpace=wrap;html=1;" parent="1" vertex="1">
                    <mxGeometry x="40" y="-2160" width="770" height="70" as="geometry"/>
                </mxCell>
                <mxCell id="4" value="" style="shape=image;html=1;verticalLabelPosition=bottom;verticalAlign=top;imageAspect=1;aspect=fixed;image=https://cdn.discordapp.com/attachments/910885868733087747/1066040074367672370/Are_you_smarter_than_an_AI.png;fontSize=10;" parent="1" vertex="1">
                    <mxGeometry x="50" y="-2151" width="50" height="50" as="geometry"/>
                </mxCell>
                <mxCell id="5" value="Are you smarter &lt;br style=&quot;font-size: 12px;&quot;&gt;than an AI?" style="text;strokeColor=none;fillColor=none;html=1;fontSize=12;fontStyle=1;verticalAlign=middle;align=left;" parent="1" vertex="1">
                    <mxGeometry x="105" y="-2146" width="100" height="40" as="geometry"/>
                </mxCell>
                <mxCell id="6" value="Predict" style="text;html=1;strokeColor=none;fillColor=none;align=center;verticalAlign=middle;whiteSpace=wrap;rounded=0;" parent="1" vertex="1">
                    <mxGeometry x="593" y="-2140.5" width="60" height="30" as="geometry"/>
                </mxCell>
                <mxCell id="7" value="Quiz" style="text;html=1;strokeColor=none;fillColor=none;align=center;verticalAlign=middle;whiteSpace=wrap;rounded=0;" parent="1" vertex="1">
                    <mxGeometry x="641" y="-2139.5" width="60" height="30" as="geometry"/>
                </mxCell>
                <mxCell id="8" value="Logout" style="text;html=1;strokeColor=none;fillColor=none;align=center;verticalAlign=middle;whiteSpace=wrap;rounded=0;" parent="1" vertex="1">
                    <mxGeometry x="735" y="-2139.5" width="60" height="30" as="geometry"/>
                </mxCell>
                <mxCell id="9" value="History" style="text;html=1;strokeColor=none;fillColor=none;align=center;verticalAlign=middle;whiteSpace=wrap;rounded=0;" parent="1" vertex="1">
                    <mxGeometry x="688" y="-2139.5" width="60" height="30" as="geometry"/>
                </mxCell>
                <mxCell id="10" value="Home" style="text;html=1;strokeColor=none;fillColor=none;align=center;verticalAlign=middle;whiteSpace=wrap;rounded=0;" parent="1" vertex="1">
                    <mxGeometry x="550" y="-2140.5" width="60" height="30" as="geometry"/>
                </mxCell>
                <mxCell id="13" value="START" style="rounded=1;html=1;shadow=0;dashed=0;whiteSpace=wrap;fontSize=10;fillColor=#666666;align=center;strokeColor=#4D4D4D;fontColor=#ffffff;" parent="1" vertex="1">
                    <mxGeometry x="372" y="-1820" width="105.5" height="16.88" as="geometry"/>
                </mxCell>
                <mxCell id="40" value="&lt;font style=&quot;font-size: 14px;&quot;&gt;Choose AI&amp;nbsp; &amp;nbsp; &amp;nbsp; &amp;nbsp;&amp;nbsp;&lt;/font&gt;" style="html=1;whiteSpace=wrap;container=1;recursiveResize=0;collapsible=0;labelBorderColor=none;fontSize=32;fontStyle=1;strokeColor=default;fillColor=default;rounded=1;shadow=0;glass=0;imageAspect=1;allowArrows=1;align=right;verticalAlign=top;" parent="1" vertex="1">
                    <mxGeometry x="265" y="-2010" width="160" height="60" as="geometry"/>
                </mxCell>
                <mxCell id="41" value="" style="triangle;html=1;whiteSpace=wrap;labelBorderColor=none;fontSize=32;" parent="40" vertex="1">
                    <mxGeometry x="20" y="20" width="20" height="30" as="geometry"/>
                </mxCell>
                <mxCell id="42" value="&lt;font style=&quot;font-size: 14px;&quot;&gt;FINE/COARSE&amp;nbsp; &amp;nbsp;&lt;/font&gt;" style="html=1;whiteSpace=wrap;container=1;recursiveResize=0;collapsible=0;labelBorderColor=none;fontSize=32;fontStyle=1;strokeColor=default;fillColor=default;rounded=1;shadow=0;glass=0;imageAspect=1;allowArrows=1;align=right;verticalAlign=top;" parent="1" vertex="1">
                    <mxGeometry x="265" y="-1930" width="160" height="60" as="geometry"/>
                </mxCell>
                <mxCell id="43" value="" style="triangle;html=1;whiteSpace=wrap;labelBorderColor=none;fontSize=32;" parent="42" vertex="1">
                    <mxGeometry x="20" y="20" width="20" height="30" as="geometry"/>
                </mxCell>
                <mxCell id="44" value="Select Difficulty" style="text;strokeColor=none;fillColor=none;html=1;fontSize=32;fontStyle=1;verticalAlign=middle;align=center;" vertex="1" parent="1">
                    <mxGeometry x="377.5" y="-2070" width="100" height="40" as="geometry"/>
                </mxCell>
                <mxCell id="45" value="&lt;font style=&quot;font-size: 14px;&quot;&gt;AI INFORMATION&lt;/font&gt;" style="text;strokeColor=none;fillColor=none;html=1;fontSize=32;fontStyle=1;verticalAlign=middle;align=left;" vertex="1" parent="1">
                    <mxGeometry x="440" y="-2010" width="100" height="40" as="geometry"/>
                </mxCell>
                <mxCell id="47" value="&lt;font style=&quot;font-size: 14px;&quot;&gt;DATASET INFORMATION&lt;/font&gt;" style="text;strokeColor=none;fillColor=none;html=1;fontSize=32;fontStyle=1;verticalAlign=middle;align=left;" vertex="1" parent="1">
                    <mxGeometry x="440" y="-1920" width="100" height="40" as="geometry"/>
                </mxCell>
                <mxCell id="48" value="" style="rounded=0;whiteSpace=wrap;html=1;" vertex="1" parent="1">
                    <mxGeometry x="42.75" y="-1670" width="770" height="430" as="geometry"/>
                </mxCell>
                <mxCell id="49" value="" style="rounded=0;whiteSpace=wrap;html=1;" vertex="1" parent="1">
                    <mxGeometry x="42.25" y="-1670" width="770" height="70" as="geometry"/>
                </mxCell>
                <mxCell id="50" value="" style="shape=image;html=1;verticalLabelPosition=bottom;verticalAlign=top;imageAspect=1;aspect=fixed;image=https://cdn.discordapp.com/attachments/910885868733087747/1066040074367672370/Are_you_smarter_than_an_AI.png;fontSize=10;" vertex="1" parent="1">
                    <mxGeometry x="52.25" y="-1661" width="50" height="50" as="geometry"/>
                </mxCell>
                <mxCell id="51" value="Are you smarter &lt;br style=&quot;font-size: 12px;&quot;&gt;than an AI?" style="text;strokeColor=none;fillColor=none;html=1;fontSize=12;fontStyle=1;verticalAlign=middle;align=left;" vertex="1" parent="1">
                    <mxGeometry x="107.25" y="-1656" width="100" height="40" as="geometry"/>
                </mxCell>
                <mxCell id="52" value="Predict" style="text;html=1;strokeColor=none;fillColor=none;align=center;verticalAlign=middle;whiteSpace=wrap;rounded=0;" vertex="1" parent="1">
                    <mxGeometry x="595.25" y="-1650.5" width="60" height="30" as="geometry"/>
                </mxCell>
                <mxCell id="53" value="Quiz" style="text;html=1;strokeColor=none;fillColor=none;align=center;verticalAlign=middle;whiteSpace=wrap;rounded=0;" vertex="1" parent="1">
                    <mxGeometry x="643.25" y="-1649.5" width="60" height="30" as="geometry"/>
                </mxCell>
                <mxCell id="54" value="Logout" style="text;html=1;strokeColor=none;fillColor=none;align=center;verticalAlign=middle;whiteSpace=wrap;rounded=0;" vertex="1" parent="1">
                    <mxGeometry x="737.25" y="-1649.5" width="60" height="30" as="geometry"/>
                </mxCell>
                <mxCell id="55" value="History" style="text;html=1;strokeColor=none;fillColor=none;align=center;verticalAlign=middle;whiteSpace=wrap;rounded=0;" vertex="1" parent="1">
                    <mxGeometry x="690.25" y="-1649.5" width="60" height="30" as="geometry"/>
                </mxCell>
                <mxCell id="56" value="Home" style="text;html=1;strokeColor=none;fillColor=none;align=center;verticalAlign=middle;whiteSpace=wrap;rounded=0;" vertex="1" parent="1">
                    <mxGeometry x="552.25" y="-1650.5" width="60" height="30" as="geometry"/>
                </mxCell>
                <mxCell id="62" value="What is this?" style="text;strokeColor=none;fillColor=none;html=1;fontSize=32;fontStyle=1;verticalAlign=middle;align=center;" vertex="1" parent="1">
                    <mxGeometry x="379.75" y="-1580" width="100" height="40" as="geometry"/>
                </mxCell>
                <mxCell id="64" value="&lt;font style=&quot;font-size: 14px;&quot;&gt;Options - [Depends on the dataset]&lt;/font&gt;" style="text;strokeColor=none;fillColor=none;html=1;fontSize=32;fontStyle=1;verticalAlign=middle;align=center;" vertex="1" parent="1">
                    <mxGeometry x="377.75" y="-1350" width="100" height="40" as="geometry"/>
                </mxCell>
                <mxCell id="65" value="" style="shape=image;html=1;verticalLabelPosition=bottom;verticalAlign=top;imageAspect=1;aspect=fixed;image=img/clipart/Gear_128x128.png;fontSize=14;" vertex="1" parent="1">
                    <mxGeometry x="365.08" y="-1510" width="119.34" height="140" as="geometry"/>
                </mxCell>
                <mxCell id="66" value="&lt;font style=&quot;font-size: 14px;&quot;&gt;1/5&lt;br&gt;&lt;/font&gt;" style="text;strokeColor=none;fillColor=none;html=1;fontSize=32;fontStyle=1;verticalAlign=middle;align=center;" vertex="1" parent="1">
                    <mxGeometry x="205" y="-1600" width="100" height="40" as="geometry"/>
                </mxCell>
                <mxCell id="67" value="SUBMIT" style="rounded=1;html=1;shadow=0;dashed=0;whiteSpace=wrap;fontSize=10;fillColor=#666666;align=center;strokeColor=#4D4D4D;fontColor=#ffffff;" vertex="1" parent="1">
                    <mxGeometry x="377" y="-1300" width="105.5" height="16.88" as="geometry"/>
                </mxCell>
            </root>
        </mxGraphModel>
    </diagram>
</mxfile>
